<svg width="24" height="25" viewBox="0 0 24 25" fill="none" xmlns="http://www.w3.org/2000/svg">
<path d="M16 2.75H8C4 2.75 2 4.75 2 8.75V21.75C2 22.3 2.45 22.75 3 22.75H16C20 22.75 22 20.75 22 16.75V8.75C22 4.75 20 2.75 16 2.75Z" stroke="#0063FF" stroke-width="1.5" stroke-linecap="round" stroke-linejoin="round"/>
<path d="M12.9098 8.59003L7.71979 13.78C7.51979 13.98 7.3298 14.37 7.2898 14.65L7.0098 16.63C6.9098 17.35 7.40979 17.85 8.12979 17.75L10.1098 17.47C10.3898 17.43 10.7798 17.24 10.9798 17.04L16.1698 11.85C17.0598 10.96 17.4898 9.92003 16.1698 8.60003C14.8498 7.27003 13.8098 7.69003 12.9098 8.59003Z" stroke="#0063FF" stroke-width="1.5" stroke-miterlimit="10" stroke-linecap="round" stroke-linejoin="round"/>
<path d="M12.1699 9.33008C12.6099 10.9001 13.8399 12.1401 15.4199 12.5801" stroke="#0063FF" stroke-width="1.5" stroke-miterlimit="10" stroke-linecap="round" stroke-linejoin="round"/>
</svg>
